<svg width="81" height="62" viewBox="0 0 81 62" fill="none" xmlns="http://www.w3.org/2000/svg">
<g clip-path="url(#clip0_7_138)">
<path d="M59.2619 61.9179C58.6206 61.7911 57.6522 61.304 57.1697 60.8655C56.9367 60.6538 56.5139 60.1877 56.2301 59.8297C53.7837 56.7443 50.0555 54.3757 46.0259 53.347C43.7043 52.7543 43.6473 52.7509 33.3648 52.6043C23.3509 52.4615 23.0133 52.444 20.5948 51.9424C15.7769 50.943 11.1299 48.3893 7.57567 44.7879C5.47934 42.6638 3.99944 40.5714 2.66911 37.8506C1.40646 35.2683 0.616214 32.6985 0.185945 29.7756C-0.0371039 28.2605 -0.066842 23.706 0.136799 22.249C0.973008 16.2661 3.52598 11.1809 7.74923 7.0861C11.769 3.18851 16.7575 0.831229 22.3898 0.167735C24.2733 -0.0541465 55.8975 -0.0567049 57.7784 0.164869C60.9063 0.533343 63.4462 1.29025 66.3291 2.71304C69.0445 4.05315 71.0783 5.53142 73.3098 7.78698C78.5566 13.0903 81.222 20.1842 80.8161 27.7647C80.6413 31.0293 79.8989 34.0985 78.5502 37.1325C77.8364 38.7382 77.2464 39.7099 73.7863 44.9785C72.0759 47.583 69.1639 52.0428 67.3153 54.8893C65.4667 57.7359 63.7695 60.2705 63.5439 60.5219C62.5202 61.6623 60.802 62.2225 59.2619 61.9179Z" fill="#67CA94"/>
<path d="M25.8165 37.9346C23.1318 37.4746 21.6183 36.6609 19.5266 34.5529C18.0555 33.0703 17.8442 32.7866 17.1639 31.3801C16.1625 29.3097 15.9037 28.2083 15.9026 26.0108C15.9008 22.7795 16.9062 20.2188 19.0972 17.873C23.7299 12.913 31.0983 12.7596 36.1235 17.5186C36.6407 18.0085 37.8199 19.3046 38.7438 20.3988C39.6677 21.4929 40.5009 22.3924 40.5955 22.3975C40.69 22.4025 41.7391 21.2732 42.9268 19.8878C45.3008 17.1183 46.2992 16.2173 47.9463 15.3582C52.6712 12.8937 58.0789 13.6958 61.8287 17.4172C62.9351 18.5152 63.4768 19.2713 64.2106 20.7414C66.4649 25.2578 65.5599 30.8531 61.9944 34.4438C60.5204 35.9283 59.0817 36.807 57.0027 37.4927C55.8869 37.8607 55.5465 37.9034 53.6431 37.9142C51.2739 37.9276 50.066 37.6747 48.3408 36.804C46.4019 35.8255 45.3166 34.8485 42.1929 31.2696C41.3986 30.3595 40.6923 29.6149 40.6234 29.6149C40.5545 29.6149 39.4813 30.7898 38.2384 32.2259C35.8799 34.9512 35.0441 35.7152 33.4642 36.5897C32.2401 37.2673 31.1264 37.6479 29.5605 37.9238C28.112 38.1789 27.257 38.1814 25.8165 37.9346ZM56.0118 33.2206C60.404 31.7138 62.3881 26.534 60.1752 22.3511C58.6676 19.5014 54.8637 17.8175 51.7936 18.6407C50.737 18.924 49.5873 19.4854 48.8661 20.0702C48.1847 20.6227 43.7116 25.7783 43.7118 26.0108C43.7119 26.1553 46.1855 29.1219 48.015 31.1717C50.0538 33.4559 53.0718 34.2292 56.0118 33.2206ZM29.5222 33.3729C30.6769 33.0634 31.7668 32.4823 32.5895 31.7374C33.3446 31.0537 37.5752 26.1965 37.5752 26.0133C37.5752 25.9143 34.8269 22.6353 33.106 20.681C31.5784 18.9463 28.9361 18.0296 26.5887 18.42C22.4739 19.1044 19.5522 23.0538 20.1717 27.0944C20.6427 30.1664 22.7539 32.4851 25.8895 33.374C26.7863 33.6282 28.5717 33.6277 29.5222 33.373V33.3729Z" fill="white"/>
<path d="M25.4751 37.6064C23.6958 37.2403 21.588 36.2588 20.7339 35.3986C20.2914 34.953 20.2165 34.7796 20.2165 34.2011C20.2165 33.4139 20.5868 32.719 21.1924 32.3698C22.0484 31.8763 22.2734 31.9071 23.8943 32.7403C25.8305 33.7356 27.0376 33.9821 28.7577 33.7334C30.1119 33.5375 31.6287 32.8649 32.6602 32.0029C33.3206 31.451 37.4875 26.6921 37.7618 26.1765C37.9008 25.9152 37.5611 25.4554 35.3399 22.8985C33.9058 21.2477 33.8011 21.0786 33.8017 20.4147C33.8026 19.2206 34.6862 18.3873 35.9513 18.3873C36.7359 18.3873 36.8425 18.4782 38.9549 20.9494C39.7675 21.9 40.5133 22.6778 40.6121 22.6778C40.8468 22.6778 40.8447 22.68 43.2997 19.8149C46.1483 16.4906 47.7345 15.3389 50.5348 14.5619C52.0727 14.1351 54.8623 14.1021 56.3692 14.4928C57.7911 14.8616 59.9849 15.9678 60.5268 16.5894C61.2307 17.3967 61.1212 18.3821 60.2304 19.2593C59.437 20.0404 58.9537 20.0366 57.4063 19.2372C55.1026 18.0471 53.1844 17.861 51.0226 18.6179C49.3319 19.2099 48.5882 19.8399 45.9152 22.9442C44.5548 24.524 43.4418 25.8933 43.4418 25.987C43.4418 26.0808 44.2364 27.0791 45.2076 28.2056C46.1788 29.332 47.0731 30.4459 47.195 30.6809C47.6074 31.4759 47.2121 32.58 46.3188 33.1286C45.815 33.438 44.9048 33.5066 44.4631 33.2686C44.3123 33.1873 43.4252 32.2605 42.4918 31.2091C41.5583 30.1577 40.7132 29.2974 40.6137 29.2974C40.5142 29.2974 39.5487 30.3325 38.4681 31.5975C35.7648 34.7622 34.8156 35.6173 33.0093 36.515C30.5822 37.7212 27.9125 38.1079 25.4751 37.6064Z" fill="#299376"/>
</g>
<defs>
<clipPath id="clip0_7_138">
<rect width="81" height="62" fill="white"/>
</clipPath>
</defs>
</svg>
